<svg width="17" height="9" viewBox="0 0 17 9" fill="none" xmlns="http://www.w3.org/2000/svg">
<path d="M3.29785 8H1.88672V2.56055L0.202148 3.08301V1.93555L3.14648 0.880859H3.29785V8ZM10.3975 5.06055C10.3975 6.04362 10.194 6.79557 9.78711 7.31641C9.38021 7.83724 8.78451 8.09766 8 8.09766C7.22526 8.09766 6.63281 7.84212 6.22266 7.33105C5.8125 6.81999 5.60254 6.08757 5.59277 5.13379V3.8252C5.59277 2.83236 5.79785 2.07878 6.20801 1.56445C6.62142 1.05013 7.21549 0.792969 7.99023 0.792969C8.76497 0.792969 9.35742 1.0485 9.76758 1.55957C10.1777 2.06738 10.3877 2.79818 10.3975 3.75195V5.06055ZM8.98633 3.625C8.98633 3.03581 8.90495 2.60775 8.74219 2.34082C8.58268 2.07064 8.33203 1.93555 7.99023 1.93555C7.6582 1.93555 7.41243 2.06413 7.25293 2.32129C7.09668 2.5752 7.01367 2.97396 7.00391 3.51758V5.24609C7.00391 5.82552 7.08203 6.25684 7.23828 6.54004C7.39779 6.81999 7.65169 6.95996 8 6.95996C8.34505 6.95996 8.59408 6.82487 8.74707 6.55469C8.90007 6.28451 8.97982 5.87109 8.98633 5.31445V3.625ZM16.1396 5.06055C16.1396 6.04362 15.9362 6.79557 15.5293 7.31641C15.1224 7.83724 14.5267 8.09766 13.7422 8.09766C12.9674 8.09766 12.375 7.84212 11.9648 7.33105C11.5547 6.81999 11.3447 6.08757 11.335 5.13379V3.8252C11.335 2.83236 11.54 2.07878 11.9502 1.56445C12.3636 1.05013 12.9577 0.792969 13.7324 0.792969C14.5072 0.792969 15.0996 1.0485 15.5098 1.55957C15.9199 2.06738 16.1299 2.79818 16.1396 3.75195V5.06055ZM14.7285 3.625C14.7285 3.03581 14.6471 2.60775 14.4844 2.34082C14.3249 2.07064 14.0742 1.93555 13.7324 1.93555C13.4004 1.93555 13.1546 2.06413 12.9951 2.32129C12.8389 2.5752 12.7559 2.97396 12.7461 3.51758V5.24609C12.7461 5.82552 12.8242 6.25684 12.9805 6.54004C13.14 6.81999 13.3939 6.95996 13.7422 6.95996C14.0872 6.95996 14.3363 6.82487 14.4893 6.55469C14.6423 6.28451 14.722 5.87109 14.7285 5.31445V3.625Z" fill="#3C8893"/>
</svg>
