<svg width="40" height="9" viewBox="0 0 40 9" fill="none" xmlns="http://www.w3.org/2000/svg">
<path d="M3.31348 8H1.90234V2.56055L0.217773 3.08301V1.93555L3.16211 0.880859H3.31348V8ZM9.80273 5.32422H10.6084V6.46191H9.80273V8H8.3916V6.46191H5.47656L5.41309 5.57324L8.37695 0.890625H9.80273V5.32422ZM6.81934 5.32422H8.3916V2.81445L8.29883 2.97559L6.81934 5.32422ZM16.2041 1.68164L13.4551 8H11.9658L14.7197 2.0332H11.1846V0.890625H16.2041V1.68164ZM21.7461 2.78027C21.7461 3.12533 21.6598 3.43132 21.4873 3.69824C21.3148 3.96517 21.0771 4.17839 20.7744 4.33789C21.1195 4.50391 21.3929 4.7334 21.5947 5.02637C21.7965 5.31608 21.8975 5.65788 21.8975 6.05176C21.8975 6.68327 21.6826 7.18294 21.2529 7.55078C20.8232 7.91536 20.2389 8.09766 19.5 8.09766C18.7611 8.09766 18.1751 7.91374 17.7422 7.5459C17.3092 7.17806 17.0928 6.68001 17.0928 6.05176C17.0928 5.65788 17.1937 5.31445 17.3955 5.02148C17.5973 4.72852 17.8691 4.50065 18.2109 4.33789C17.9082 4.17839 17.6706 3.96517 17.498 3.69824C17.3288 3.43132 17.2441 3.12533 17.2441 2.78027C17.2441 2.1748 17.446 1.69303 17.8496 1.33496C18.2533 0.973633 18.8018 0.792969 19.4951 0.792969C20.1852 0.792969 20.7321 0.972005 21.1357 1.33008C21.5426 1.6849 21.7461 2.16829 21.7461 2.78027ZM20.4814 5.94922C20.4814 5.63997 20.3919 5.39258 20.2129 5.20703C20.0339 5.02148 19.793 4.92871 19.4902 4.92871C19.1908 4.92871 18.9515 5.02148 18.7725 5.20703C18.5934 5.38932 18.5039 5.63672 18.5039 5.94922C18.5039 6.25195 18.5918 6.49609 18.7676 6.68164C18.9434 6.86719 19.1875 6.95996 19.5 6.95996C19.806 6.95996 20.0452 6.87044 20.2178 6.69141C20.3936 6.51237 20.4814 6.26497 20.4814 5.94922ZM20.335 2.84863C20.335 2.57194 20.2617 2.35059 20.1152 2.18457C19.9688 2.0153 19.762 1.93066 19.4951 1.93066C19.2314 1.93066 19.0264 2.01204 18.8799 2.1748C18.7334 2.33757 18.6602 2.56217 18.6602 2.84863C18.6602 3.13184 18.7334 3.3597 18.8799 3.53223C19.0264 3.70475 19.2331 3.79102 19.5 3.79102C19.7669 3.79102 19.972 3.70475 20.1152 3.53223C20.2617 3.3597 20.335 3.13184 20.335 2.84863ZM23.0645 4.50391L23.4746 0.890625H27.459V2.06738H24.6318L24.4561 3.5957C24.7913 3.41667 25.1478 3.32715 25.5254 3.32715C26.2025 3.32715 26.7331 3.53711 27.1172 3.95703C27.5013 4.37695 27.6934 4.96452 27.6934 5.71973C27.6934 6.17871 27.5957 6.59049 27.4004 6.95508C27.2083 7.31641 26.9316 7.59798 26.5703 7.7998C26.209 7.99837 25.7826 8.09766 25.291 8.09766C24.8613 8.09766 24.4626 8.01139 24.0947 7.83887C23.7269 7.66309 23.4355 7.41732 23.2207 7.10156C23.0091 6.78581 22.8968 6.42611 22.8838 6.02246H24.2803C24.3096 6.31868 24.4121 6.5498 24.5879 6.71582C24.7669 6.87858 24.9997 6.95996 25.2861 6.95996C25.6051 6.95996 25.8509 6.84603 26.0234 6.61816C26.196 6.38704 26.2822 6.06152 26.2822 5.6416C26.2822 5.23796 26.1829 4.92871 25.9844 4.71387C25.7858 4.49902 25.5042 4.3916 25.1396 4.3916C24.8044 4.3916 24.5326 4.47949 24.3242 4.65527L24.1875 4.78223L23.0645 4.50391ZM33.4697 8H28.5967V7.0332L30.8965 4.58203C31.2122 4.23698 31.445 3.93587 31.5947 3.67871C31.7477 3.42155 31.8242 3.17741 31.8242 2.94629C31.8242 2.63053 31.7445 2.38314 31.585 2.2041C31.4255 2.02181 31.1976 1.93066 30.9014 1.93066C30.5824 1.93066 30.3301 2.04134 30.1445 2.2627C29.9622 2.48079 29.8711 2.76888 29.8711 3.12695H28.4551C28.4551 2.69401 28.5576 2.2985 28.7627 1.94043C28.971 1.58236 29.264 1.30241 29.6416 1.10059C30.0192 0.895508 30.4473 0.792969 30.9258 0.792969C31.6582 0.792969 32.2262 0.96875 32.6299 1.32031C33.0368 1.67188 33.2402 2.16829 33.2402 2.80957C33.2402 3.16113 33.1491 3.51921 32.9668 3.88379C32.7845 4.24837 32.472 4.67318 32.0293 5.1582L30.4131 6.8623H33.4697V8ZM35.7744 3.82031H36.5264C36.8844 3.82031 37.1497 3.73079 37.3223 3.55176C37.4948 3.37272 37.5811 3.13509 37.5811 2.83887C37.5811 2.55241 37.4948 2.32943 37.3223 2.16992C37.153 2.01042 36.9186 1.93066 36.6191 1.93066C36.349 1.93066 36.1227 2.00553 35.9404 2.15527C35.7581 2.30176 35.667 2.49382 35.667 2.73145H34.2559C34.2559 2.36035 34.3551 2.02832 34.5537 1.73535C34.7555 1.43913 35.0355 1.20801 35.3936 1.04199C35.7549 0.875977 36.152 0.792969 36.585 0.792969C37.3369 0.792969 37.9261 0.973633 38.3525 1.33496C38.779 1.69303 38.9922 2.18783 38.9922 2.81934C38.9922 3.14486 38.8929 3.44434 38.6943 3.71777C38.4958 3.99121 38.2354 4.20117 37.9131 4.34766C38.3135 4.49089 38.6113 4.70573 38.8066 4.99219C39.0052 5.27865 39.1045 5.61719 39.1045 6.00781C39.1045 6.63932 38.8734 7.14551 38.4111 7.52637C37.9521 7.90723 37.3434 8.09766 36.585 8.09766C35.8753 8.09766 35.2943 7.91048 34.8418 7.53613C34.3926 7.16178 34.168 6.66699 34.168 6.05176H35.5791C35.5791 6.31868 35.6784 6.53678 35.877 6.70605C36.0788 6.87533 36.3262 6.95996 36.6191 6.95996C36.9544 6.95996 37.2165 6.87207 37.4053 6.69629C37.5973 6.51725 37.6934 6.28125 37.6934 5.98828C37.6934 5.27865 37.3027 4.92383 36.5215 4.92383H35.7744V3.82031Z" fill="#3C8893"/>
</svg>
