<svg width="29" height="9" viewBox="0 0 29 9" fill="none" xmlns="http://www.w3.org/2000/svg">
<path d="M4.05566 8H2.64453V2.56055L0.959961 3.08301V1.93555L3.9043 0.880859H4.05566V8ZM6.58008 4.50391L6.99023 0.890625H10.9746V2.06738H8.14746L7.97168 3.5957C8.30697 3.41667 8.66341 3.32715 9.04102 3.32715C9.7181 3.32715 10.2487 3.53711 10.6328 3.95703C11.0169 4.37695 11.209 4.96452 11.209 5.71973C11.209 6.17871 11.1113 6.59049 10.916 6.95508C10.724 7.31641 10.4473 7.59798 10.0859 7.7998C9.72461 7.99837 9.29818 8.09766 8.80664 8.09766C8.37695 8.09766 7.97819 8.01139 7.61035 7.83887C7.24251 7.66309 6.95117 7.41732 6.73633 7.10156C6.52474 6.78581 6.41243 6.42611 6.39941 6.02246H7.7959C7.8252 6.31868 7.92773 6.5498 8.10352 6.71582C8.28255 6.87858 8.5153 6.95996 8.80176 6.95996C9.12077 6.95996 9.36654 6.84603 9.53906 6.61816C9.71159 6.38704 9.79785 6.06152 9.79785 5.6416C9.79785 5.23796 9.69857 4.92871 9.5 4.71387C9.30143 4.49902 9.01986 4.3916 8.65527 4.3916C8.31999 4.3916 8.04818 4.47949 7.83984 4.65527L7.70312 4.78223L6.58008 4.50391ZM16.8975 5.06055C16.8975 6.04362 16.694 6.79557 16.2871 7.31641C15.8802 7.83724 15.2845 8.09766 14.5 8.09766C13.7253 8.09766 13.1328 7.84212 12.7227 7.33105C12.3125 6.81999 12.1025 6.08757 12.0928 5.13379V3.8252C12.0928 2.83236 12.2979 2.07878 12.708 1.56445C13.1214 1.05013 13.7155 0.792969 14.4902 0.792969C15.265 0.792969 15.8574 1.0485 16.2676 1.55957C16.6777 2.06738 16.8877 2.79818 16.8975 3.75195V5.06055ZM15.4863 3.625C15.4863 3.03581 15.4049 2.60775 15.2422 2.34082C15.0827 2.07064 14.832 1.93555 14.4902 1.93555C14.1582 1.93555 13.9124 2.06413 13.7529 2.32129C13.5967 2.5752 13.5137 2.97396 13.5039 3.51758V5.24609C13.5039 5.82552 13.582 6.25684 13.7383 6.54004C13.8978 6.81999 14.1517 6.95996 14.5 6.95996C14.8451 6.95996 15.0941 6.82487 15.2471 6.55469C15.4001 6.28451 15.4798 5.87109 15.4863 5.31445V3.625ZM22.4883 2.78027C22.4883 3.12533 22.402 3.43132 22.2295 3.69824C22.057 3.96517 21.8193 4.17839 21.5166 4.33789C21.8617 4.50391 22.1351 4.7334 22.3369 5.02637C22.5387 5.31608 22.6396 5.65788 22.6396 6.05176C22.6396 6.68327 22.4248 7.18294 21.9951 7.55078C21.5654 7.91536 20.9811 8.09766 20.2422 8.09766C19.5033 8.09766 18.9173 7.91374 18.4844 7.5459C18.0514 7.17806 17.835 6.68001 17.835 6.05176C17.835 5.65788 17.9359 5.31445 18.1377 5.02148C18.3395 4.72852 18.6113 4.50065 18.9531 4.33789C18.6504 4.17839 18.4128 3.96517 18.2402 3.69824C18.071 3.43132 17.9863 3.12533 17.9863 2.78027C17.9863 2.1748 18.1882 1.69303 18.5918 1.33496C18.9954 0.973633 19.5439 0.792969 20.2373 0.792969C20.9274 0.792969 21.4743 0.972005 21.8779 1.33008C22.2848 1.6849 22.4883 2.16829 22.4883 2.78027ZM21.2236 5.94922C21.2236 5.63997 21.1341 5.39258 20.9551 5.20703C20.776 5.02148 20.5352 4.92871 20.2324 4.92871C19.9329 4.92871 19.6937 5.02148 19.5146 5.20703C19.3356 5.38932 19.2461 5.63672 19.2461 5.94922C19.2461 6.25195 19.334 6.49609 19.5098 6.68164C19.6855 6.86719 19.9297 6.95996 20.2422 6.95996C20.5482 6.95996 20.7874 6.87044 20.96 6.69141C21.1357 6.51237 21.2236 6.26497 21.2236 5.94922ZM21.0771 2.84863C21.0771 2.57194 21.0039 2.35059 20.8574 2.18457C20.7109 2.0153 20.5042 1.93066 20.2373 1.93066C19.9736 1.93066 19.7686 2.01204 19.6221 2.1748C19.4756 2.33757 19.4023 2.56217 19.4023 2.84863C19.4023 3.13184 19.4756 3.3597 19.6221 3.53223C19.7686 3.70475 19.9753 3.79102 20.2422 3.79102C20.5091 3.79102 20.7142 3.70475 20.8574 3.53223C21.0039 3.3597 21.0771 3.13184 21.0771 2.84863ZM25.0322 3.82031H25.7842C26.1423 3.82031 26.4076 3.73079 26.5801 3.55176C26.7526 3.37272 26.8389 3.13509 26.8389 2.83887C26.8389 2.55241 26.7526 2.32943 26.5801 2.16992C26.4108 2.01042 26.1764 1.93066 25.877 1.93066C25.6068 1.93066 25.3805 2.00553 25.1982 2.15527C25.016 2.30176 24.9248 2.49382 24.9248 2.73145H23.5137C23.5137 2.36035 23.613 2.02832 23.8115 1.73535C24.0133 1.43913 24.2933 1.20801 24.6514 1.04199C25.0127 0.875977 25.4098 0.792969 25.8428 0.792969C26.5947 0.792969 27.1839 0.973633 27.6104 1.33496C28.0368 1.69303 28.25 2.18783 28.25 2.81934C28.25 3.14486 28.1507 3.44434 27.9521 3.71777C27.7536 3.99121 27.4932 4.20117 27.1709 4.34766C27.5713 4.49089 27.8691 4.70573 28.0645 4.99219C28.263 5.27865 28.3623 5.61719 28.3623 6.00781C28.3623 6.63932 28.1312 7.14551 27.6689 7.52637C27.21 7.90723 26.6012 8.09766 25.8428 8.09766C25.1331 8.09766 24.5521 7.91048 24.0996 7.53613C23.6504 7.16178 23.4258 6.66699 23.4258 6.05176H24.8369C24.8369 6.31868 24.9362 6.53678 25.1348 6.70605C25.3366 6.87533 25.584 6.95996 25.877 6.95996C26.2122 6.95996 26.4743 6.87207 26.6631 6.69629C26.8551 6.51725 26.9512 6.28125 26.9512 5.98828C26.9512 5.27865 26.5605 4.92383 25.7793 4.92383H25.0322V3.82031Z" fill="#3C8893"/>
</svg>
