<svg width="12" height="8" viewBox="0 0 12 8" fill="none" xmlns="http://www.w3.org/2000/svg">
<path d="M3.34668 8H1.93555V2.56055L0.250977 3.08301V1.93555L3.19531 0.880859H3.34668V8ZM5.8125 8V0.890625H8.30273C9.16536 0.890625 9.81966 1.05664 10.2656 1.38867C10.7116 1.71745 10.9346 2.20085 10.9346 2.83887C10.9346 3.18717 10.8451 3.49479 10.666 3.76172C10.487 4.02539 10.238 4.21908 9.91895 4.34277C10.2835 4.43392 10.57 4.61784 10.7783 4.89453C10.9899 5.17122 11.0957 5.50977 11.0957 5.91016C11.0957 6.59375 10.8776 7.11133 10.4414 7.46289C10.0052 7.81445 9.38346 7.99349 8.57617 8H5.8125ZM7.27734 4.9043V6.82324H8.53223C8.87728 6.82324 9.14583 6.74186 9.33789 6.5791C9.5332 6.41309 9.63086 6.18522 9.63086 5.89551C9.63086 5.24447 9.29395 4.91406 8.62012 4.9043H7.27734ZM7.27734 3.86914H8.36133C9.10026 3.85612 9.46973 3.56152 9.46973 2.98535C9.46973 2.66309 9.37533 2.43197 9.18652 2.29199C9.00098 2.14876 8.70638 2.07715 8.30273 2.07715H7.27734V3.86914Z" fill="#3C8893"/>
</svg>
