<svg width="41" height="9" viewBox="0 0 41 9" fill="none" xmlns="http://www.w3.org/2000/svg">
<path d="M1.0957 4.50391L1.50586 0.890625H5.49023V2.06738H2.66309L2.4873 3.5957C2.82259 3.41667 3.17904 3.32715 3.55664 3.32715C4.23372 3.32715 4.76432 3.53711 5.14844 3.95703C5.53255 4.37695 5.72461 4.96452 5.72461 5.71973C5.72461 6.17871 5.62695 6.59049 5.43164 6.95508C5.23958 7.31641 4.96289 7.59798 4.60156 7.7998C4.24023 7.99837 3.8138 8.09766 3.32227 8.09766C2.89258 8.09766 2.49382 8.01139 2.12598 7.83887C1.75814 7.66309 1.4668 7.41732 1.25195 7.10156C1.04036 6.78581 0.92806 6.42611 0.915039 6.02246H2.31152C2.34082 6.31868 2.44336 6.5498 2.61914 6.71582C2.79818 6.87858 3.03092 6.95996 3.31738 6.95996C3.63639 6.95996 3.88216 6.84603 4.05469 6.61816C4.22721 6.38704 4.31348 6.06152 4.31348 5.6416C4.31348 5.23796 4.21419 4.92871 4.01562 4.71387C3.81706 4.49902 3.53548 4.3916 3.1709 4.3916C2.83561 4.3916 2.5638 4.47949 2.35547 4.65527L2.21875 4.78223L1.0957 4.50391ZM11.4619 1.68164L8.71289 8H7.22363L9.97754 2.0332H6.44238V0.890625H11.4619V1.68164ZM17.0039 2.78027C17.0039 3.12533 16.9176 3.43132 16.7451 3.69824C16.5726 3.96517 16.335 4.17839 16.0322 4.33789C16.3773 4.50391 16.6507 4.7334 16.8525 5.02637C17.0544 5.31608 17.1553 5.65788 17.1553 6.05176C17.1553 6.68327 16.9404 7.18294 16.5107 7.55078C16.0811 7.91536 15.4967 8.09766 14.7578 8.09766C14.0189 8.09766 13.4329 7.91374 13 7.5459C12.5671 7.17806 12.3506 6.68001 12.3506 6.05176C12.3506 5.65788 12.4515 5.31445 12.6533 5.02148C12.8551 4.72852 13.127 4.50065 13.4688 4.33789C13.166 4.17839 12.9284 3.96517 12.7559 3.69824C12.5866 3.43132 12.502 3.12533 12.502 2.78027C12.502 2.1748 12.7038 1.69303 13.1074 1.33496C13.5111 0.973633 14.0596 0.792969 14.7529 0.792969C15.443 0.792969 15.9899 0.972005 16.3936 1.33008C16.8005 1.6849 17.0039 2.16829 17.0039 2.78027ZM15.7393 5.94922C15.7393 5.63997 15.6497 5.39258 15.4707 5.20703C15.2917 5.02148 15.0508 4.92871 14.748 4.92871C14.4486 4.92871 14.2093 5.02148 14.0303 5.20703C13.8512 5.38932 13.7617 5.63672 13.7617 5.94922C13.7617 6.25195 13.8496 6.49609 14.0254 6.68164C14.2012 6.86719 14.4453 6.95996 14.7578 6.95996C15.0638 6.95996 15.3031 6.87044 15.4756 6.69141C15.6514 6.51237 15.7393 6.26497 15.7393 5.94922ZM15.5928 2.84863C15.5928 2.57194 15.5195 2.35059 15.373 2.18457C15.2266 2.0153 15.0199 1.93066 14.7529 1.93066C14.4893 1.93066 14.2842 2.01204 14.1377 2.1748C13.9912 2.33757 13.918 2.56217 13.918 2.84863C13.918 3.13184 13.9912 3.3597 14.1377 3.53223C14.2842 3.70475 14.4909 3.79102 14.7578 3.79102C15.0247 3.79102 15.2298 3.70475 15.373 3.53223C15.5195 3.3597 15.5928 3.13184 15.5928 2.84863ZM21.9404 0.817383V1.97949H21.8037C21.1657 1.98926 20.6514 2.15527 20.2607 2.47754C19.8734 2.7998 19.6406 3.2474 19.5625 3.82031C19.9401 3.4362 20.417 3.24414 20.9932 3.24414C21.6117 3.24414 22.1032 3.46549 22.4678 3.9082C22.8324 4.35091 23.0146 4.93359 23.0146 5.65625C23.0146 6.11849 22.9137 6.53678 22.7119 6.91113C22.5133 7.28548 22.2301 7.57682 21.8623 7.78516C21.4977 7.99349 21.0843 8.09766 20.6221 8.09766C19.8734 8.09766 19.2679 7.83724 18.8057 7.31641C18.3467 6.79557 18.1172 6.10059 18.1172 5.23145V4.72363C18.1172 3.95215 18.262 3.27181 18.5518 2.68262C18.8447 2.09017 19.263 1.63281 19.8066 1.31055C20.3535 0.985026 20.9867 0.820638 21.7061 0.817383H21.9404ZM20.5635 4.37695C20.3356 4.37695 20.1289 4.43717 19.9434 4.55762C19.7578 4.6748 19.6211 4.83105 19.5332 5.02637V5.45605C19.5332 5.92806 19.626 6.29753 19.8115 6.56445C19.9971 6.82812 20.2575 6.95996 20.5928 6.95996C20.8955 6.95996 21.1396 6.84115 21.3252 6.60352C21.514 6.36263 21.6084 6.05176 21.6084 5.6709C21.6084 5.28353 21.514 4.97103 21.3252 4.7334C21.1364 4.49577 20.8825 4.37695 20.5635 4.37695ZM27.6826 0.817383V1.97949H27.5459C26.9079 1.98926 26.3936 2.15527 26.0029 2.47754C25.6156 2.7998 25.3828 3.2474 25.3047 3.82031C25.6823 3.4362 26.1592 3.24414 26.7354 3.24414C27.3538 3.24414 27.8454 3.46549 28.21 3.9082C28.5745 4.35091 28.7568 4.93359 28.7568 5.65625C28.7568 6.11849 28.6559 6.53678 28.4541 6.91113C28.2555 7.28548 27.9723 7.57682 27.6045 7.78516C27.2399 7.99349 26.8265 8.09766 26.3643 8.09766C25.6156 8.09766 25.0101 7.83724 24.5479 7.31641C24.0889 6.79557 23.8594 6.10059 23.8594 5.23145V4.72363C23.8594 3.95215 24.0042 3.27181 24.2939 2.68262C24.5869 2.09017 25.0052 1.63281 25.5488 1.31055C26.0957 0.985026 26.7288 0.820638 27.4482 0.817383H27.6826ZM26.3057 4.37695C26.0778 4.37695 25.8711 4.43717 25.6855 4.55762C25.5 4.6748 25.3633 4.83105 25.2754 5.02637V5.45605C25.2754 5.92806 25.3682 6.29753 25.5537 6.56445C25.7393 6.82812 25.9997 6.95996 26.335 6.95996C26.6377 6.95996 26.8818 6.84115 27.0674 6.60352C27.2562 6.36263 27.3506 6.05176 27.3506 5.6709C27.3506 5.28353 27.2562 4.97103 27.0674 4.7334C26.8786 4.49577 26.6247 4.37695 26.3057 4.37695ZM29.8066 4.50391L30.2168 0.890625H34.2012V2.06738H31.374L31.1982 3.5957C31.5335 3.41667 31.89 3.32715 32.2676 3.32715C32.9447 3.32715 33.4753 3.53711 33.8594 3.95703C34.2435 4.37695 34.4355 4.96452 34.4355 5.71973C34.4355 6.17871 34.3379 6.59049 34.1426 6.95508C33.9505 7.31641 33.6738 7.59798 33.3125 7.7998C32.9512 7.99837 32.5247 8.09766 32.0332 8.09766C31.6035 8.09766 31.2048 8.01139 30.8369 7.83887C30.4691 7.66309 30.1777 7.41732 29.9629 7.10156C29.7513 6.78581 29.639 6.42611 29.626 6.02246H31.0225C31.0518 6.31868 31.1543 6.5498 31.3301 6.71582C31.5091 6.87858 31.7419 6.95996 32.0283 6.95996C32.3473 6.95996 32.5931 6.84603 32.7656 6.61816C32.9382 6.38704 33.0244 6.06152 33.0244 5.6416C33.0244 5.23796 32.9251 4.92871 32.7266 4.71387C32.528 4.49902 32.2464 4.3916 31.8818 4.3916C31.5465 4.3916 31.2747 4.47949 31.0664 4.65527L30.9297 4.78223L29.8066 4.50391ZM40.2119 8H35.3389V7.0332L37.6387 4.58203C37.9544 4.23698 38.1872 3.93587 38.3369 3.67871C38.4899 3.42155 38.5664 3.17741 38.5664 2.94629C38.5664 2.63053 38.4867 2.38314 38.3271 2.2041C38.1676 2.02181 37.9398 1.93066 37.6436 1.93066C37.3245 1.93066 37.0723 2.04134 36.8867 2.2627C36.7044 2.48079 36.6133 2.76888 36.6133 3.12695H35.1973C35.1973 2.69401 35.2998 2.2985 35.5049 1.94043C35.7132 1.58236 36.0062 1.30241 36.3838 1.10059C36.7614 0.895508 37.1895 0.792969 37.668 0.792969C38.4004 0.792969 38.9684 0.96875 39.3721 1.32031C39.779 1.67188 39.9824 2.16829 39.9824 2.80957C39.9824 3.16113 39.8913 3.51921 39.709 3.88379C39.5267 4.24837 39.2142 4.67318 38.7715 5.1582L37.1553 6.8623H40.2119V8Z" fill="#3C8893"/>
</svg>
