<svg width="12" height="9" viewBox="0 0 12 9" fill="none" xmlns="http://www.w3.org/2000/svg">
<path d="M5.375 2.78027C5.375 3.12533 5.28874 3.43132 5.11621 3.69824C4.94368 3.96517 4.70605 4.17839 4.40332 4.33789C4.74837 4.50391 5.02181 4.7334 5.22363 5.02637C5.42546 5.31608 5.52637 5.65788 5.52637 6.05176C5.52637 6.68327 5.31152 7.18294 4.88184 7.55078C4.45215 7.91536 3.86784 8.09766 3.12891 8.09766C2.38997 8.09766 1.80404 7.91374 1.37109 7.5459C0.938151 7.17806 0.72168 6.68001 0.72168 6.05176C0.72168 5.65788 0.822591 5.31445 1.02441 5.02148C1.22624 4.72852 1.49805 4.50065 1.83984 4.33789C1.53711 4.17839 1.29948 3.96517 1.12695 3.69824C0.957682 3.43132 0.873047 3.12533 0.873047 2.78027C0.873047 2.1748 1.07487 1.69303 1.47852 1.33496C1.88216 0.973633 2.43066 0.792969 3.12402 0.792969C3.81413 0.792969 4.361 0.972005 4.76465 1.33008C5.17155 1.6849 5.375 2.16829 5.375 2.78027ZM4.11035 5.94922C4.11035 5.63997 4.02083 5.39258 3.8418 5.20703C3.66276 5.02148 3.42188 4.92871 3.11914 4.92871C2.81966 4.92871 2.5804 5.02148 2.40137 5.20703C2.22233 5.38932 2.13281 5.63672 2.13281 5.94922C2.13281 6.25195 2.2207 6.49609 2.39648 6.68164C2.57227 6.86719 2.81641 6.95996 3.12891 6.95996C3.4349 6.95996 3.67415 6.87044 3.84668 6.69141C4.02246 6.51237 4.11035 6.26497 4.11035 5.94922ZM3.96387 2.84863C3.96387 2.57194 3.89062 2.35059 3.74414 2.18457C3.59766 2.0153 3.39095 1.93066 3.12402 1.93066C2.86035 1.93066 2.65527 2.01204 2.50879 2.1748C2.3623 2.33757 2.28906 2.56217 2.28906 2.84863C2.28906 3.13184 2.3623 3.3597 2.50879 3.53223C2.65527 3.70475 2.86198 3.79102 3.12891 3.79102C3.39583 3.79102 3.60091 3.70475 3.74414 3.53223C3.89062 3.3597 3.96387 3.13184 3.96387 2.84863ZM11.2686 5.06055C11.2686 6.04362 11.0651 6.79557 10.6582 7.31641C10.2513 7.83724 9.6556 8.09766 8.87109 8.09766C8.09635 8.09766 7.50391 7.84212 7.09375 7.33105C6.68359 6.81999 6.47363 6.08757 6.46387 5.13379V3.8252C6.46387 2.83236 6.66895 2.07878 7.0791 1.56445C7.49251 1.05013 8.08659 0.792969 8.86133 0.792969C9.63607 0.792969 10.2285 1.0485 10.6387 1.55957C11.0488 2.06738 11.2588 2.79818 11.2686 3.75195V5.06055ZM9.85742 3.625C9.85742 3.03581 9.77604 2.60775 9.61328 2.34082C9.45378 2.07064 9.20312 1.93555 8.86133 1.93555C8.5293 1.93555 8.28353 2.06413 8.12402 2.32129C7.96777 2.5752 7.88477 2.97396 7.875 3.51758V5.24609C7.875 5.82552 7.95312 6.25684 8.10938 6.54004C8.26888 6.81999 8.52279 6.95996 8.87109 6.95996C9.21615 6.95996 9.46517 6.82487 9.61816 6.55469C9.77116 6.28451 9.85091 5.87109 9.85742 5.31445V3.625Z" fill="#3C8893"/>
</svg>
