<svg width="33" height="9" viewBox="0 0 33 9" fill="none" xmlns="http://www.w3.org/2000/svg">
<path d="M5.39062 2.78027C5.39062 3.12533 5.30436 3.43132 5.13184 3.69824C4.95931 3.96517 4.72168 4.17839 4.41895 4.33789C4.764 4.50391 5.03743 4.7334 5.23926 5.02637C5.44108 5.31608 5.54199 5.65788 5.54199 6.05176C5.54199 6.68327 5.32715 7.18294 4.89746 7.55078C4.46777 7.91536 3.88346 8.09766 3.14453 8.09766C2.4056 8.09766 1.81966 7.91374 1.38672 7.5459C0.953776 7.17806 0.737305 6.68001 0.737305 6.05176C0.737305 5.65788 0.838216 5.31445 1.04004 5.02148C1.24186 4.72852 1.51367 4.50065 1.85547 4.33789C1.55273 4.17839 1.3151 3.96517 1.14258 3.69824C0.973307 3.43132 0.888672 3.12533 0.888672 2.78027C0.888672 2.1748 1.09049 1.69303 1.49414 1.33496C1.89779 0.973633 2.44629 0.792969 3.13965 0.792969C3.82975 0.792969 4.37663 0.972005 4.78027 1.33008C5.18717 1.6849 5.39062 2.16829 5.39062 2.78027ZM4.12598 5.94922C4.12598 5.63997 4.03646 5.39258 3.85742 5.20703C3.67839 5.02148 3.4375 4.92871 3.13477 4.92871C2.83529 4.92871 2.59603 5.02148 2.41699 5.20703C2.23796 5.38932 2.14844 5.63672 2.14844 5.94922C2.14844 6.25195 2.23633 6.49609 2.41211 6.68164C2.58789 6.86719 2.83203 6.95996 3.14453 6.95996C3.45052 6.95996 3.68978 6.87044 3.8623 6.69141C4.03809 6.51237 4.12598 6.26497 4.12598 5.94922ZM3.97949 2.84863C3.97949 2.57194 3.90625 2.35059 3.75977 2.18457C3.61328 2.0153 3.40658 1.93066 3.13965 1.93066C2.87598 1.93066 2.6709 2.01204 2.52441 2.1748C2.37793 2.33757 2.30469 2.56217 2.30469 2.84863C2.30469 3.13184 2.37793 3.3597 2.52441 3.53223C2.6709 3.70475 2.8776 3.79102 3.14453 3.79102C3.41146 3.79102 3.61654 3.70475 3.75977 3.53223C3.90625 3.3597 3.97949 3.13184 3.97949 2.84863ZM11.333 1.68164L8.58398 8H7.09473L9.84863 2.0332H6.31348V0.890625H11.333V1.68164ZM15.542 5.1582C15.1742 5.51953 14.7445 5.7002 14.2529 5.7002C13.6247 5.7002 13.1217 5.48535 12.7441 5.05566C12.3665 4.62272 12.1777 4.04004 12.1777 3.30762C12.1777 2.84212 12.2786 2.41569 12.4805 2.02832C12.6855 1.6377 12.9704 1.33496 13.335 1.12012C13.6995 0.902018 14.1097 0.792969 14.5654 0.792969C15.0342 0.792969 15.4508 0.910156 15.8154 1.14453C16.18 1.37891 16.4632 1.71582 16.665 2.15527C16.8669 2.59473 16.9694 3.09766 16.9727 3.66406V4.18652C16.9727 5.37142 16.6781 6.30241 16.0889 6.97949C15.4997 7.65658 14.6647 8.0179 13.584 8.06348L13.2373 8.06836V6.8916L13.5498 6.88672C14.777 6.83138 15.4411 6.25521 15.542 5.1582ZM14.5996 4.62109C14.8275 4.62109 15.0228 4.5625 15.1855 4.44531C15.3516 4.32812 15.4769 4.18652 15.5615 4.02051V3.43945C15.5615 2.96094 15.4704 2.58984 15.2881 2.32617C15.1058 2.0625 14.8617 1.93066 14.5557 1.93066C14.2725 1.93066 14.0397 2.06087 13.8574 2.32129C13.6751 2.57845 13.584 2.90234 13.584 3.29297C13.584 3.68034 13.6719 3.99935 13.8477 4.25C14.0267 4.4974 14.2773 4.62109 14.5996 4.62109ZM18.1934 4.50391L18.6035 0.890625H22.5879V2.06738H19.7607L19.585 3.5957C19.9202 3.41667 20.2767 3.32715 20.6543 3.32715C21.3314 3.32715 21.862 3.53711 22.2461 3.95703C22.6302 4.37695 22.8223 4.96452 22.8223 5.71973C22.8223 6.17871 22.7246 6.59049 22.5293 6.95508C22.3372 7.31641 22.0605 7.59798 21.6992 7.7998C21.3379 7.99837 20.9115 8.09766 20.4199 8.09766C19.9902 8.09766 19.5915 8.01139 19.2236 7.83887C18.8558 7.66309 18.5645 7.41732 18.3496 7.10156C18.138 6.78581 18.0257 6.42611 18.0127 6.02246H19.4092C19.4385 6.31868 19.541 6.5498 19.7168 6.71582C19.8958 6.87858 20.1286 6.95996 20.415 6.95996C20.734 6.95996 20.9798 6.84603 21.1523 6.61816C21.3249 6.38704 21.4111 6.06152 21.4111 5.6416C21.4111 5.23796 21.3118 4.92871 21.1133 4.71387C20.9147 4.49902 20.6331 4.3916 20.2686 4.3916C19.9333 4.3916 19.6615 4.47949 19.4531 4.65527L19.3164 4.78223L18.1934 4.50391ZM28.5986 8H23.7256V7.0332L26.0254 4.58203C26.3411 4.23698 26.5739 3.93587 26.7236 3.67871C26.8766 3.42155 26.9531 3.17741 26.9531 2.94629C26.9531 2.63053 26.8734 2.38314 26.7139 2.2041C26.5544 2.02181 26.3265 1.93066 26.0303 1.93066C25.7113 1.93066 25.459 2.04134 25.2734 2.2627C25.0911 2.48079 25 2.76888 25 3.12695H23.584C23.584 2.69401 23.6865 2.2985 23.8916 1.94043C24.0999 1.58236 24.3929 1.30241 24.7705 1.10059C25.1481 0.895508 25.5762 0.792969 26.0547 0.792969C26.7871 0.792969 27.3551 0.96875 27.7588 1.32031C28.1657 1.67188 28.3691 2.16829 28.3691 2.80957C28.3691 3.16113 28.278 3.51921 28.0957 3.88379C27.9134 4.24837 27.6009 4.67318 27.1582 5.1582L25.542 6.8623H28.5986V8ZM32.8955 8H31.4844V2.56055L29.7998 3.08301V1.93555L32.7441 0.880859H32.8955V8Z" fill="#3C8893"/>
</svg>
