<svg width="35" height="9" viewBox="0 0 35 9" fill="none" xmlns="http://www.w3.org/2000/svg">
<path d="M4.05762 5.1582C3.68978 5.51953 3.26009 5.7002 2.76855 5.7002C2.1403 5.7002 1.63737 5.48535 1.25977 5.05566C0.882161 4.62272 0.693359 4.04004 0.693359 3.30762C0.693359 2.84212 0.794271 2.41569 0.996094 2.02832C1.20117 1.6377 1.486 1.33496 1.85059 1.12012C2.21517 0.902018 2.62533 0.792969 3.08105 0.792969C3.5498 0.792969 3.96647 0.910156 4.33105 1.14453C4.69564 1.37891 4.97884 1.71582 5.18066 2.15527C5.38249 2.59473 5.48503 3.09766 5.48828 3.66406V4.18652C5.48828 5.37142 5.19368 6.30241 4.60449 6.97949C4.0153 7.65658 3.18034 8.0179 2.09961 8.06348L1.75293 8.06836V6.8916L2.06543 6.88672C3.29264 6.83138 3.95671 6.25521 4.05762 5.1582ZM3.11523 4.62109C3.3431 4.62109 3.53841 4.5625 3.70117 4.44531C3.86719 4.32812 3.99251 4.18652 4.07715 4.02051V3.43945C4.07715 2.96094 3.986 2.58984 3.80371 2.32617C3.62142 2.0625 3.37728 1.93066 3.07129 1.93066C2.78809 1.93066 2.55534 2.06087 2.37305 2.32129C2.19076 2.57845 2.09961 2.90234 2.09961 3.29297C2.09961 3.68034 2.1875 3.99935 2.36328 4.25C2.54232 4.4974 2.79297 4.62109 3.11523 4.62109ZM11.1328 2.78027C11.1328 3.12533 11.0465 3.43132 10.874 3.69824C10.7015 3.96517 10.4639 4.17839 10.1611 4.33789C10.5062 4.50391 10.7796 4.7334 10.9814 5.02637C11.1833 5.31608 11.2842 5.65788 11.2842 6.05176C11.2842 6.68327 11.0693 7.18294 10.6396 7.55078C10.21 7.91536 9.62565 8.09766 8.88672 8.09766C8.14779 8.09766 7.56185 7.91374 7.12891 7.5459C6.69596 7.17806 6.47949 6.68001 6.47949 6.05176C6.47949 5.65788 6.5804 5.31445 6.78223 5.02148C6.98405 4.72852 7.25586 4.50065 7.59766 4.33789C7.29492 4.17839 7.05729 3.96517 6.88477 3.69824C6.71549 3.43132 6.63086 3.12533 6.63086 2.78027C6.63086 2.1748 6.83268 1.69303 7.23633 1.33496C7.63997 0.973633 8.18848 0.792969 8.88184 0.792969C9.57194 0.792969 10.1188 0.972005 10.5225 1.33008C10.9294 1.6849 11.1328 2.16829 11.1328 2.78027ZM9.86816 5.94922C9.86816 5.63997 9.77865 5.39258 9.59961 5.20703C9.42057 5.02148 9.17969 4.92871 8.87695 4.92871C8.57747 4.92871 8.33822 5.02148 8.15918 5.20703C7.98014 5.38932 7.89062 5.63672 7.89062 5.94922C7.89062 6.25195 7.97852 6.49609 8.1543 6.68164C8.33008 6.86719 8.57422 6.95996 8.88672 6.95996C9.19271 6.95996 9.43197 6.87044 9.60449 6.69141C9.78027 6.51237 9.86816 6.26497 9.86816 5.94922ZM9.72168 2.84863C9.72168 2.57194 9.64844 2.35059 9.50195 2.18457C9.35547 2.0153 9.14876 1.93066 8.88184 1.93066C8.61816 1.93066 8.41309 2.01204 8.2666 2.1748C8.12012 2.33757 8.04688 2.56217 8.04688 2.84863C8.04688 3.13184 8.12012 3.3597 8.2666 3.53223C8.41309 3.70475 8.61979 3.79102 8.88672 3.79102C9.15365 3.79102 9.35872 3.70475 9.50195 3.53223C9.64844 3.3597 9.72168 3.13184 9.72168 2.84863ZM17.0752 1.68164L14.3262 8H12.8369L15.5908 2.0332H12.0557V0.890625H17.0752V1.68164ZM22.1582 5.32422H22.9639V6.46191H22.1582V8H20.7471V6.46191H17.832L17.7686 5.57324L20.7324 0.890625H22.1582V5.32422ZM19.1748 5.32422H20.7471V2.81445L20.6543 2.97559L19.1748 5.32422ZM28.5986 8H23.7256V7.0332L26.0254 4.58203C26.3411 4.23698 26.5739 3.93587 26.7236 3.67871C26.8766 3.42155 26.9531 3.17741 26.9531 2.94629C26.9531 2.63053 26.8734 2.38314 26.7139 2.2041C26.5544 2.02181 26.3265 1.93066 26.0303 1.93066C25.7113 1.93066 25.459 2.04134 25.2734 2.2627C25.0911 2.48079 25 2.76888 25 3.12695H23.584C23.584 2.69401 23.6865 2.2985 23.8916 1.94043C24.0999 1.58236 24.3929 1.30241 24.7705 1.10059C25.1481 0.895508 25.5762 0.792969 26.0547 0.792969C26.7871 0.792969 27.3551 0.96875 27.7588 1.32031C28.1657 1.67188 28.3691 2.16829 28.3691 2.80957C28.3691 3.16113 28.278 3.51921 28.0957 3.88379C27.9134 4.24837 27.6009 4.67318 27.1582 5.1582L25.542 6.8623H28.5986V8ZM29.6777 4.50391L30.0879 0.890625H34.0723V2.06738H31.2451L31.0693 3.5957C31.4046 3.41667 31.7611 3.32715 32.1387 3.32715C32.8158 3.32715 33.3464 3.53711 33.7305 3.95703C34.1146 4.37695 34.3066 4.96452 34.3066 5.71973C34.3066 6.17871 34.209 6.59049 34.0137 6.95508C33.8216 7.31641 33.5449 7.59798 33.1836 7.7998C32.8223 7.99837 32.3958 8.09766 31.9043 8.09766C31.4746 8.09766 31.0758 8.01139 30.708 7.83887C30.3402 7.66309 30.0488 7.41732 29.834 7.10156C29.6224 6.78581 29.5101 6.42611 29.4971 6.02246H30.8936C30.9229 6.31868 31.0254 6.5498 31.2012 6.71582C31.3802 6.87858 31.613 6.95996 31.8994 6.95996C32.2184 6.95996 32.4642 6.84603 32.6367 6.61816C32.8092 6.38704 32.8955 6.06152 32.8955 5.6416C32.8955 5.23796 32.7962 4.92871 32.5977 4.71387C32.3991 4.49902 32.1175 4.3916 31.7529 4.3916C31.4176 4.3916 31.1458 4.47949 30.9375 4.65527L30.8008 4.78223L29.6777 4.50391Z" fill="#3C8893"/>
</svg>
