<svg width="120" height="120" viewBox="0 0 120 120" fill="none" xmlns="http://www.w3.org/2000/svg">
<path d="M73.76 55.8396L57.775 45.1796C57.0213 44.6768 56.1451 44.3881 55.2401 44.3446C54.3351 44.3011 53.4352 44.5044 52.6368 44.9326C51.8383 45.3609 51.1712 45.998 50.7068 46.776C50.2424 47.554 49.9981 48.4436 50 49.3496V70.6646C49.9999 71.5698 50.2455 72.4581 50.7106 73.2347C51.1758 74.0112 51.843 74.6469 52.6412 75.074C53.4393 75.501 54.3384 75.7034 55.2426 75.6595C56.1467 75.6156 57.022 75.327 57.775 74.8246L73.76 64.1646C74.4448 63.708 75.0063 63.0894 75.3946 62.3637C75.783 61.638 75.9861 60.8277 75.9861 60.0046C75.9861 59.1816 75.783 58.3712 75.3946 57.6455C75.0063 56.9198 74.4448 56.3012 73.76 55.8446V55.8396Z" stroke="#E1C6C6" stroke-width="2" stroke-linecap="round" stroke-linejoin="round"/>
<path d="M105 60C105 65.9095 103.836 71.7611 101.575 77.2208C99.3131 82.6804 95.9984 87.6412 91.8198 91.8198C87.6412 95.9984 82.6804 99.3131 77.2208 101.575C71.7611 103.836 65.9095 105 60 105C54.0905 105 48.2389 103.836 42.7792 101.575C37.3196 99.3131 32.3588 95.9984 28.1802 91.8198C24.0016 87.6412 20.6869 82.6804 18.4254 77.2208C16.164 71.7611 15 65.9095 15 60C15 48.0653 19.7411 36.6193 28.1802 28.1802C36.6193 19.7411 48.0653 15 60 15C71.9347 15 83.3807 19.7411 91.8198 28.1802C100.259 36.6193 105 48.0653 105 60Z" stroke="#BCF3ED" stroke-width="2" stroke-linecap="round" stroke-linejoin="round"/>
</svg>
