<svg width="16" height="10" viewBox="0 0 16 10" fill="none" xmlns="http://www.w3.org/2000/svg">
<path fill-rule="evenodd" clip-rule="evenodd" d="M9.99943 2C9.73421 2 9.47986 1.89464 9.29232 1.70711C9.10479 1.51957 8.99943 1.26522 8.99943 1C8.99943 0.734784 9.10479 0.48043 9.29232 0.292893C9.47986 0.105357 9.73421 0 9.99943 0H14.9994C15.2646 0 15.519 0.105357 15.7065 0.292893C15.8941 0.48043 15.9994 0.734784 15.9994 1V6C15.9994 6.26522 15.8941 6.51957 15.7065 6.70711C15.519 6.89464 15.2646 7 14.9994 7C14.7342 7 14.4799 6.89464 14.2923 6.70711C14.1048 6.51957 13.9994 6.26522 13.9994 6V3.414L9.70643 7.707C9.5189 7.89447 9.2646 7.99979 8.99943 7.99979C8.73427 7.99979 8.47996 7.89447 8.29243 7.707L5.99943 5.414L1.70643 9.707C1.51783 9.88916 1.26523 9.98995 1.00303 9.98767C0.740832 9.9854 0.49002 9.88023 0.304612 9.69482C0.119204 9.50941 0.014035 9.2586 0.0117566 8.9964C0.00947813 8.7342 0.110272 8.4816 0.292431 8.293L5.29243 3.293C5.47996 3.10553 5.73427 3.00021 5.99943 3.00021C6.2646 3.00021 6.5189 3.10553 6.70643 3.293L8.99943 5.586L12.5854 2H9.99943Z" fill="#3C8893"/>
</svg>
