<svg width="18" height="22" viewBox="0 0 18 22" fill="none" xmlns="http://www.w3.org/2000/svg">
<path d="M13.4988 16.9848C13.4988 19.4268 12.3588 21.1828 10.4918 21.1828C9.51675 21.1828 9.15075 20.6408 8.80175 19.3878L8.59475 18.6158C8.49375 18.2568 8.31775 17.6458 8.06775 16.7848C8.06093 16.7618 8.05083 16.7399 8.03775 16.7198L5.17175 12.2338C4.49353 11.1727 3.49285 10.3571 2.31675 9.90684L1.84375 9.72684C1.23978 9.4953 0.736759 9.05828 0.423098 8.4926C0.109437 7.92691 0.00521466 7.26876 0.128751 6.63384L0.532751 4.54684C0.651246 3.93755 0.941741 3.37493 1.36989 2.92552C1.79803 2.47611 2.34591 2.15871 2.94875 2.01084L10.5768 0.14084C11.7928 -0.157083 13.0774 0.0371805 14.151 0.68138C15.2246 1.32558 16.0004 2.36761 16.3098 3.58084L17.7248 9.13084C17.8469 9.61066 17.8579 10.1121 17.7567 10.5968C17.6556 11.0814 17.445 11.5366 17.1411 11.9275C16.8372 12.3184 16.4481 12.6347 16.0033 12.8523C15.5585 13.0699 15.0699 13.1829 14.5748 13.1828H12.7528C13.2488 14.8158 13.4988 16.0758 13.4988 16.9848ZM1.59875 6.91984C1.54286 7.20836 1.59041 7.50735 1.73306 7.76429C1.8757 8.02123 2.10432 8.2197 2.37875 8.32484L2.85275 8.50684C4.32839 9.0719 5.58389 10.0954 6.43475 11.4268L9.30175 15.9118C9.39175 16.0518 9.46075 16.2058 9.50675 16.3658L10.0588 18.2858L10.2708 19.0778C10.4108 19.5658 10.4808 19.6828 10.4908 19.6828C11.3588 19.6828 11.9978 18.6988 11.9978 16.9848C11.9978 16.0998 11.6718 14.6488 11.0138 12.6698C10.9762 12.5572 10.966 12.4372 10.9839 12.3197C11.0018 12.2023 11.0474 12.0908 11.1168 11.9945C11.1862 11.8981 11.2775 11.8196 11.3832 11.7654C11.4889 11.7112 11.606 11.6829 11.7248 11.6828H14.5748C14.8413 11.6827 15.1043 11.6216 15.3437 11.5044C15.5831 11.3872 15.7925 11.2169 15.9561 11.0064C16.1197 10.796 16.2331 10.5509 16.2876 10.29C16.3421 10.0291 16.3364 9.75919 16.2708 9.50084L14.8558 3.95084C14.644 3.12077 14.113 2.40789 13.3783 1.96725C12.6437 1.52661 11.7648 1.39385 10.9328 1.59784L3.30475 3.46784C2.98007 3.54748 2.685 3.71846 2.45444 3.96053C2.22388 4.20261 2.06748 4.50567 2.00375 4.83384L1.59875 6.91984Z" fill="#3C8893"/>
</svg>
