<svg width="18" height="18" viewBox="0 0 18 18" fill="none" xmlns="http://www.w3.org/2000/svg">
<path d="M11.25 9C11.25 9.59674 11.0129 10.169 10.591 10.591C10.169 11.0129 9.59674 11.25 9 11.25C8.40326 11.25 7.83097 11.0129 7.40901 10.591C6.98705 10.169 6.75 9.59674 6.75 9C6.75 8.40326 6.98705 7.83097 7.40901 7.40901C7.83097 6.98705 8.40326 6.75 9 6.75C9.59674 6.75 10.169 6.98705 10.591 7.40901C11.0129 7.83097 11.25 8.40326 11.25 9V9Z" stroke="#3C8893" stroke-width="2" stroke-linecap="round" stroke-linejoin="round"/>
<path d="M1.84375 9C2.79925 5.95725 5.6425 3.75 9.00025 3.75C12.3588 3.75 15.2013 5.95725 16.1568 9C15.2013 12.0428 12.3588 14.25 9.00025 14.25C5.6425 14.25 2.79925 12.0428 1.84375 9V9Z" stroke="#3C8893" stroke-width="2" stroke-linecap="round" stroke-linejoin="round"/>
</svg>
