<svg width="80" height="80" viewBox="0 0 80 80" fill="none" xmlns="http://www.w3.org/2000/svg">
<path d="M49.172 37.2263L38.5154 30.1196C38.0129 29.7843 37.4288 29.5919 36.8254 29.5629C36.2221 29.5339 35.6222 29.6694 35.0899 29.9549C34.5576 30.2404 34.1128 30.6652 33.8032 31.1838C33.4936 31.7025 33.3307 32.2955 33.332 32.8996V47.1096C33.3319 47.7131 33.4957 48.3052 33.8058 48.8229C34.1159 49.3407 34.5607 49.7645 35.0928 50.0492C35.6249 50.3339 36.2243 50.4688 36.8271 50.4395C37.4299 50.4102 38.0134 50.2178 38.5154 49.8829L49.172 42.7763C49.6286 42.4718 50.0029 42.0594 50.2618 41.5756C50.5207 41.0919 50.6561 40.5516 50.6561 40.0029C50.6561 39.4542 50.5207 38.914 50.2618 38.4302C50.0029 37.9464 49.6286 37.534 49.172 37.2296V37.2263Z" stroke="#E1C6C6" stroke-width="2" stroke-linecap="round" stroke-linejoin="round"/>
<path d="M70 40C70 43.9397 69.224 47.8407 67.7164 51.4805C66.2087 55.1203 63.999 58.4274 61.2132 61.2132C58.4274 63.999 55.1203 66.2087 51.4805 67.7164C47.8407 69.224 43.9397 70 40 70C36.0603 70 32.1593 69.224 28.5195 67.7164C24.8797 66.2087 21.5726 63.999 18.7868 61.2132C16.001 58.4274 13.7913 55.1203 12.2836 51.4805C10.776 47.8407 10 43.9397 10 40C10 32.0435 13.1607 24.4129 18.7868 18.7868C24.4129 13.1607 32.0435 10 40 10C47.9565 10 55.5871 13.1607 61.2132 18.7868C66.8393 24.4129 70 32.0435 70 40Z" stroke="#BCF3ED" stroke-width="2" stroke-linecap="round" stroke-linejoin="round"/>
</svg>
