<svg width="22" height="21" viewBox="0 0 22 21" fill="none" xmlns="http://www.w3.org/2000/svg">
<path d="M10.0501 1.92708C10.3501 1.00608 11.6531 1.00608 11.9521 1.92708L13.4711 6.60108C13.5364 6.80157 13.6635 6.97626 13.8341 7.10018C14.0048 7.22411 14.2102 7.29092 14.4211 7.29108H19.3361C20.3051 7.29108 20.7071 8.53108 19.9241 9.10108L15.9481 11.9891C15.7773 12.1132 15.6502 12.2883 15.585 12.4891C15.5198 12.6899 15.5198 12.9063 15.5851 13.1071L17.1031 17.7811C17.4031 18.7031 16.3481 19.4691 15.5651 18.8991L11.5891 16.0111C11.4182 15.8869 11.2123 15.8199 11.0011 15.8199C10.7898 15.8199 10.584 15.8869 10.4131 16.0111L6.43707 18.8991C5.65407 19.4691 4.59907 18.7021 4.89907 17.7811L6.41707 13.1071C6.48235 12.9063 6.48239 12.6899 6.41718 12.4891C6.35197 12.2883 6.22486 12.1132 6.05407 11.9891L2.07807 9.10108C1.29407 8.53108 1.69807 7.29108 2.66607 7.29108H7.58007C7.79112 7.29113 7.99677 7.22442 8.1676 7.10048C8.33842 6.97654 8.46565 6.80173 8.53107 6.60108L10.0501 1.92708V1.92708Z" stroke="#3C8893" stroke-width="2" stroke-linecap="round" stroke-linejoin="round"/>
</svg>
